<svg width="300" height="300" viewBox="0 0 300 300" fill="none" xmlns="http://www.w3.org/2000/svg">
<path d="M192.18 149.999C183.069 149.978 174.201 152.939 166.93 158.429L115.66 107.159C116.877 105.336 117.83 103.349 118.49 101.259L150.12 104.329C150.774 113.351 154.792 121.798 161.379 127.997C167.966 134.196 176.642 137.695 185.687 137.8C194.732 137.905 203.486 134.609 210.215 128.565C216.945 122.52 221.158 114.169 222.021 105.165C222.884 96.1604 220.333 87.1605 214.874 79.9481C209.415 72.7356 201.446 67.8368 192.546 66.2222C183.646 64.6075 174.464 66.3949 166.819 71.2301C159.175 76.0653 153.625 83.5956 151.27 92.3292L119.63 89.2592C118.979 84.2386 116.935 79.5008 113.729 75.5827C110.523 71.6646 106.283 68.7228 101.491 67.0908C96.6988 65.4589 91.5451 65.2019 86.6142 66.3491C81.6833 67.4963 77.1724 70.0018 73.5926 73.5816C70.0128 77.1614 67.5073 81.6723 66.3601 86.6032C65.2129 91.5341 65.4699 96.6878 67.1018 101.48C68.7338 106.272 71.6755 110.512 75.5937 113.718C79.5118 116.924 84.2496 118.968 89.2701 119.619L92.3401 151.259C83.5719 153.618 76.0098 159.185 71.1526 166.856C66.2954 174.528 64.4978 183.744 66.1158 192.679C67.7339 201.613 72.6497 209.614 79.8888 215.095C87.1279 220.576 96.162 223.137 105.201 222.271C114.239 221.405 122.622 217.174 128.689 210.418C134.755 203.662 138.062 194.874 137.954 185.794C137.845 176.715 134.33 168.008 128.104 161.398C121.878 154.789 113.397 150.76 104.34 150.109L101.27 118.479C103.349 117.816 105.332 116.885 107.17 115.709L158.44 166.999C152.928 174.233 149.961 183.085 150 192.179C150 200.522 152.474 208.677 157.109 215.613C161.744 222.55 168.331 227.956 176.039 231.148C183.746 234.341 192.227 235.176 200.409 233.549C208.591 231.921 216.107 227.904 222.006 222.005C227.905 216.106 231.922 208.59 233.55 200.408C235.177 192.226 234.342 183.745 231.149 176.038C227.957 168.33 222.551 161.743 215.614 157.108C208.678 152.473 200.523 149.999 192.18 149.999ZM186.18 83.7192C189.57 83.7152 192.894 84.6645 195.77 86.4588C198.647 88.2532 200.961 90.8202 202.449 93.8668C203.936 96.9135 204.537 100.317 204.182 103.689C203.828 107.061 202.533 110.265 200.445 112.936C198.356 115.607 195.559 117.636 192.372 118.794C189.185 119.951 185.738 120.188 182.422 119.48C179.107 118.771 176.057 117.144 173.622 114.785C171.187 112.426 169.464 109.43 168.65 106.139C167.633 102.122 168.058 97.8754 169.85 94.1392C171.285 91.0248 173.584 88.3876 176.473 86.5406C179.362 84.6936 182.721 83.7144 186.15 83.7192H186.18ZM101.8 168.079C103.264 168.074 104.722 168.255 106.14 168.619C110.296 169.633 113.96 172.085 116.483 175.54C119.006 178.994 120.226 183.23 119.927 187.498C119.629 191.765 117.831 195.79 114.851 198.86C111.871 201.929 107.902 203.847 103.645 204.272C99.3887 204.698 95.1185 203.605 91.59 201.186C88.0616 198.767 85.5021 195.178 84.3644 191.054C83.2266 186.93 83.5838 182.537 85.3728 178.651C87.1618 174.765 90.2673 171.636 94.1401 169.819C96.5257 168.658 99.147 168.062 101.8 168.079ZM101.74 93.2392C101.704 94.4072 101.429 95.5555 100.932 96.6132C100.435 97.6709 99.7262 98.6156 98.8501 99.3892C97.144 100.938 94.9085 101.774 92.6044 101.724C90.3003 101.674 88.1033 100.742 86.466 99.1202C84.8287 97.4983 83.876 95.3101 83.8042 93.0066C83.7324 90.7031 84.547 88.4599 86.0801 86.7392C86.8483 85.8395 87.7975 85.1118 88.8658 84.6035C89.9341 84.0952 91.0974 83.8177 92.2801 83.7892C92.432 83.7268 92.5968 83.7027 92.7601 83.7192C94.1709 83.7222 95.5612 84.0568 96.8188 84.6961C98.0765 85.3353 99.1662 86.2612 100 87.3992C101.176 88.9383 101.812 90.8221 101.81 92.7592C101.821 92.9223 101.797 93.0858 101.74 93.2392ZM192.18 216.239C185.791 216.231 179.666 213.69 175.148 209.172C170.63 204.654 168.088 198.528 168.08 192.139C168.073 187.861 169.239 183.662 171.45 179.999C173.461 176.439 176.394 173.485 179.94 171.449C183.637 169.231 187.869 168.065 192.18 168.079C198.572 168.079 204.702 170.618 209.221 175.138C213.741 179.658 216.28 185.787 216.28 192.179C216.28 198.571 213.741 204.701 209.221 209.22C204.702 213.74 198.572 216.279 192.18 216.279V216.239Z" fill="#04CF65"/>
</svg>
